<?xml version="1.0" encoding="UTF-8"?>
<svg id="Layer_1" xmlns="http://www.w3.org/2000/svg" version="1.1" viewBox="0 0 600 163.7">
  <!-- Generator: Adobe Illustrator 30.4.0, SVG Export Plug-In . SVG Version: 2.1.4 Build 226)  -->
  <defs>
    <style>
      .st0 {
        fill: #fff;
      }

      .st1 {
        isolation: isolate;
      }
    </style>
  </defs>
  <g class="st1">
    <g class="st1">
      <path class="st0" d="M2.75,16.61h16.03c.18,0,.32.08.44.25.12.17.21.41.27.75.06.33.11.67.15,1.02.04.35.07.78.09,1.29.01.51.02.95.02,1.31s0,.8-.02,1.31c-.02.51-.02.87-.02,1.08-.27,11.84-.4,22.73-.4,32.67s.07,17.03.22,21.01c0,1.39.24,2.15.71,2.3,1.83.24,4.12.31,6.86.2,2.75-.11,5.38-.13,7.9-.07,2.52.06,3.8.3,3.83.72.06,2.26.03,6.14-.09,11.66-.06,1.72-.08,3.23-.07,4.54.01,1.31.03,2.43.04,3.34.01.92,0,1.67-.04,2.26-.04.59-.15,1.02-.31,1.29-.16.27-.41.41-.73.41H3.28c-.21,0-.39-.09-.55-.27-.16-.18-.29-.45-.38-.81-.09-.36-.16-.71-.22-1.06-.06-.35-.1-.81-.11-1.4-.02-.59-.02-1.05-.02-1.4v-2.64c-.03-3.22-.12-9.2-.27-17.94-.15-8.73-.24-15.74-.27-21.01-.03-3.31.03-14.82.18-34.52,0-.21-.02-.68-.04-1.42-.03-.74-.04-1.32-.02-1.74.01-.42.05-.91.11-1.47.06-.56.18-.97.35-1.24s.41-.41.71-.41Z"/>
      <path class="st0" d="M41.9,16.61c.29,0,1.04,0,2.24-.02,1.2-.01,1.87,0,2.01.02,4.16.21,13.45.1,27.87-.34,14.42-.44,24.31-.46,29.69-.07.24,0,.35.14.35.41-.03,1.48-.04,3.38-.02,5.72.01,2.33,0,4.35-.02,6.05-.03,1.7-.1,3.41-.22,5.13,0,.15,0,.47-.02.95-.02.48-.04.86-.07,1.13s-.07.59-.13.95-.15.63-.27.79c-.12.17-.28.26-.49.29-.92.12-2.01.18-3.28.18-5.31.12-9.96.18-13.95.18-.12,10.24-.18,18.31-.18,24.22,0,4.43.1,11.21.29,20.35.19,9.14.3,15.01.33,17.6,0,.21,0,.53.02.95.01.42.03.8.04,1.13.01.33.01.67,0,1.02-.02.35-.07.61-.15.79s-.21.27-.35.27c-1.03,0-1.89-.03-2.57-.09-1.71-.12-3.04-.18-3.98-.18-.56,0-3.37.09-8.41.27h-1.82c-.21,0-.36-.09-.46-.27-.1-.18-.17-.44-.2-.79-.03-.35-.04-.67-.04-.97s0-.66.02-1.08c.01-.42.02-.71.02-.86,0-5.63-.08-12.68-.24-21.15-.16-8.46-.23-14.92-.2-19.38v-21.82c-9.92,0-17.83.12-23.73.36h-2.08c-.62,0-.93-1.25-.93-3.75v-.32c0-6.39-.06-10.65-.18-12.79-.18-3.25.19-4.88,1.11-4.88ZM44.42,42.13h15.32c1.18.03,1.84.2,1.97.5.13.3.11,1.4-.07,3.3-.18,1.66-.27,3.45-.27,5.38-.15,7.23-.06,23.39.27,48.48,0,.21,0,.53.02.95.01.42.03.8.04,1.13.01.33.01.67,0,1.02-.02.35-.07.61-.15.79-.09.18-.21.27-.35.27-1.03,0-1.89-.03-2.57-.09-1.71-.12-3.04-.18-3.98-.18-.33,0-3.01.09-8.06.27h-1.82c-.21,0-.36-.09-.46-.27-.1-.18-.17-.44-.2-.79-.03-.35-.04-.67-.04-.97s.01-.66.04-1.08c.03-.42.04-.71.04-.86,0-5.12-.1-13.76-.29-25.91-.19-12.15-.29-20.79-.29-25.91,0-.27,0-.77-.02-1.49-.02-.72-.02-1.29-.02-1.69s.02-.86.07-1.36c.04-.5.13-.87.27-1.11.13-.24.32-.36.55-.36Z"/>
      <path class="st0" d="M125.19,16.61h1.37c1.36-.03,4.16-.13,8.41-.29,4.25-.17,7.43-.28,9.54-.34,2.11-.06,4.77-.08,7.97-.07,3.2.02,5.98.11,8.35.29.24,0,.35.14.35.41-.03,1.48-.04,3.46-.02,5.96.01,2.5,0,4.68-.02,6.53-.03,1.85-.1,3.64-.22,5.35,0,.15,0,.47-.02.95-.02.48-.04.86-.07,1.13-.03.27-.07.58-.13.93-.06.35-.15.6-.27.77-.12.17-.28.26-.49.29-.92.12-2.01.18-3.28.18-3.01.12-7.85.18-14.52.18-.06,4.94-.09,12.71-.09,23.31,0,4.4.1,11.1.29,20.11.19,9.01.3,14.83.33,17.48,0,.21,0,.53.02.95.01.42.03.8.04,1.13.01.33.01.67,0,1.02-.02.35-.07.61-.15.79s-.21.27-.35.27c-1,0-1.84-.03-2.52-.09-1.71-.12-3.04-.18-3.98-.18-.59,0-3.41.09-8.46.27h-1.82c-.21,0-.36-.09-.46-.27-.1-.18-.17-.44-.2-.79-.03-.35-.04-.67-.04-.97s.01-.66.04-1.08c.03-.42.04-.71.04-.86,0-5.66-.08-12.66-.24-20.99-.16-8.33-.23-14.72-.2-19.18.03-1.36.04-3.11.04-5.26s0-4.83-.02-8.02c-.02-3.19-.02-5.74-.02-7.64-5.7,0-10.77.12-15.23.36h-2.08c-.62,0-.93-1.25-.93-3.75v-.32c0-6.99-.06-11.55-.18-13.69-.18-3.25.19-4.88,1.11-4.88.29,0,1.04,0,2.24-.02,1.2-.01,1.87,0,2.01.02,2.69.12,7.25.12,13.68,0h.18Z"/>
      <path class="st0" d="M164.38,16.61h16.03c.18,0,.32.08.44.25.12.17.21.41.27.75.06.33.11.67.15,1.02.04.35.07.78.09,1.29.01.51.02.95.02,1.31s0,.8-.02,1.31c-.02.51-.02.87-.02,1.08-.27,11.84-.4,22.73-.4,32.67s.07,17.03.22,21.01c0,1.39.24,2.15.71,2.3,1.83.24,4.12.31,6.86.2,2.75-.11,5.38-.13,7.9-.07,2.52.06,3.8.3,3.83.72.06,2.26.03,6.14-.09,11.66-.06,1.72-.08,3.23-.07,4.54.01,1.31.03,2.43.04,3.34.01.92,0,1.67-.04,2.26-.04.59-.15,1.02-.31,1.29-.16.27-.41.41-.73.41h-34.36c-.21,0-.39-.09-.55-.27-.16-.18-.29-.45-.38-.81-.09-.36-.16-.71-.22-1.06-.06-.35-.1-.81-.11-1.4-.02-.59-.02-1.05-.02-1.4v-2.64c-.03-3.22-.12-9.2-.27-17.94-.15-8.73-.24-15.74-.27-21.01-.03-3.31.03-14.82.18-34.52,0-.21-.02-.68-.04-1.42-.03-.74-.04-1.32-.02-1.74.01-.42.05-.91.11-1.47.06-.56.18-.97.35-1.24s.41-.41.71-.41Z"/>
      <path class="st0" d="M202.33,101.46V18.37c0-1.17.81-1.76,2.44-1.76,3.31-.03,8.79-.17,16.45-.43,7.66-.26,13.28-.4,16.85-.43.09,0,.24,0,.46-.02.22-.01.41-.01.55,0,.15.02.32.03.53.05.21.02.38.04.51.09.13.04.27.11.4.18.13.08.22.19.27.34.04.15.07.32.07.5-.18,3.95-.33,11.22-.44,21.82-1.62.03-4.77.1-9.45.2-4.68.11-8.48.16-11.4.16-.12,3.49-.15,6.93-.09,10.3,0,1.17.12,1.76.35,1.76.09,0,.21-.04.35-.11.15-.07.31-.11.49-.11,1.33-.12,5.89-.27,13.68-.45.15,0,.33,0,.55-.02.22-.01.41-.03.58-.04.16-.02.32-.02.46,0,.15.02.27.07.35.16.09.09.13.21.13.36v3.52c-.15,7.53-.27,12.38-.35,14.55,0,.6-.09.99-.27,1.15-.18.17-.55.25-1.11.25-2.15.06-5.15.15-8.99.27-3.84.12-5.86.18-6.07.18-.06.96-.09,2.06-.09,3.3s.01,2.58.04,4.04c.03,1.46.04,2.52.04,3.19,1.77,0,5.1-.17,9.98-.5,4.88-.33,8.54-.5,10.96-.5.44,0,.68.04.71.11.03.08.04.56.04,1.47-.56,8.43-.87,15.06-.93,19.88,0,1.42-.49,2.12-1.46,2.12h-1.82c-16.62,0-27.73-.03-33.34-.09-.97,0-1.46-.8-1.46-2.39Z"/>
      <path class="st0" d="M261.81,16.61h16.03c.18,0,.32.08.44.25.12.17.21.41.27.75.06.33.11.67.15,1.02.04.35.07.78.09,1.29.01.51.02.95.02,1.31s0,.8-.02,1.31c-.02.51-.02.87-.02,1.08-.27,11.84-.4,22.73-.4,32.67s.07,17.03.22,21.01c0,1.39.24,2.15.71,2.3,1.83.24,4.12.31,6.86.2,2.75-.11,5.38-.13,7.9-.07,2.52.06,3.8.3,3.83.72.06,2.26.03,6.14-.09,11.66-.06,1.72-.08,3.23-.07,4.54.01,1.31.03,2.43.04,3.34.01.92,0,1.67-.04,2.26-.04.59-.15,1.02-.31,1.29-.16.27-.41.41-.73.41h-34.36c-.21,0-.39-.09-.55-.27-.16-.18-.29-.45-.38-.81-.09-.36-.16-.71-.22-1.06-.06-.35-.1-.81-.11-1.4-.02-.59-.02-1.05-.02-1.4v-2.64c-.03-3.22-.12-9.2-.27-17.94-.15-8.73-.24-15.74-.27-21.01-.03-3.31.03-14.82.18-34.52,0-.21-.02-.68-.04-1.42-.03-.74-.04-1.32-.02-1.74.01-.42.05-.91.11-1.47.06-.56.18-.97.35-1.24s.41-.41.71-.41Z"/>
      <path class="st0" d="M299.76,101.46V18.37c0-1.17.81-1.76,2.43-1.76,3.31-.03,8.79-.17,16.45-.43,7.66-.26,13.28-.4,16.85-.43.09,0,.24,0,.46-.02.22-.01.41-.01.55,0,.15.02.32.03.53.05.21.02.38.04.51.09.13.04.27.11.4.18.13.08.22.19.27.34.04.15.07.32.07.5-.18,3.95-.32,11.22-.44,21.82-1.62.03-4.77.1-9.45.2-4.68.11-8.48.16-11.4.16-.12,3.49-.15,6.93-.09,10.3,0,1.17.12,1.76.35,1.76.09,0,.21-.04.35-.11.15-.07.31-.11.49-.11,1.33-.12,5.89-.27,13.68-.45.15,0,.33,0,.55-.02.22-.01.41-.03.58-.04.16-.02.32-.02.46,0,.15.02.27.07.35.16.09.09.13.21.13.36v3.52c-.15,7.53-.27,12.38-.35,14.55,0,.6-.09.99-.27,1.15-.18.17-.55.25-1.11.25-2.15.06-5.15.15-8.99.27-3.84.12-5.86.18-6.07.18-.06.96-.09,2.06-.09,3.3s.01,2.58.04,4.04c.03,1.46.04,2.52.04,3.19,1.77,0,5.1-.17,9.99-.5,4.88-.33,8.54-.5,10.96-.5.44,0,.68.04.71.11s.04.56.04,1.47c-.56,8.43-.87,15.06-.93,19.88,0,1.42-.49,2.12-1.46,2.12h-1.82c-16.62,0-27.73-.03-33.34-.09-.97,0-1.46-.8-1.46-2.39Z"/>
      <path class="st0" d="M387.34,93.96c-.5,2.95-1.3,4.99-2.39,6.1-.03.09-.18.27-.44.54-1.71,1.54-4.5,2.77-8.37,3.7-3.87.93-7.72,1.4-11.56,1.4-2.69,0-4.87-.21-6.55-.63-3.78-.93-6.99-3.35-9.63-7.25-2.64-3.9-4.6-8.89-5.87-14.98-1.27-6.08-1.9-13.09-1.9-21.01,0-3.92.18-7.67.55-11.25.37-3.58.96-7.13,1.77-10.64.81-3.51,1.91-6.69,3.3-9.53,1.39-2.85,3.03-5.37,4.94-7.57,1.9-2.2,4.21-3.9,6.91-5.11,2.7-1.2,5.7-1.81,9.01-1.81,2.51,0,4.46.04,5.87.11,1.4.08,3.18.35,5.33.84,2.15.48,4.01,1.22,5.58,2.21.35.27.67.76.95,1.47.28.71.42,1.39.42,2.06,0,11.84-.92,17.76-2.75,17.76-4.31-.75-7.42-1.13-9.34-1.13-4.84,0-8.49,1.44-10.94,4.31-2.45,2.88-3.85,7.76-4.21,14.66-.3,6.3.21,11.32,1.53,15.07,1.31,3.75,3.02,6.26,5.11,7.52,1.27.75,2.69,1.13,4.25,1.13.77,0,1.8-.11,3.1-.32.33-4.76-.07-8.18-1.2-10.26-.27-.51-.66-.89-1.2-1.13-.53-.24-1-.38-1.39-.41-.4-.03-.99-.02-1.77.04-.78.06-1.29.09-1.53.09-.62,0-1.1-.11-1.44-.34-.34-.23-.52-.65-.55-1.29-.29-5.57-.29-9.98,0-13.24.09-.87,1.54-1.51,4.34-1.92,2.8-.41,6.12-.61,9.96-.61s6.75.14,8.81.41c.91.12,1.49,3.54,1.73,10.26.24,6.72.26,13.31.07,19.79-.19,6.48-.36,10.12-.51,10.93Z"/>
      <path class="st0" d="M389.74,101.46V18.37c0-1.17.81-1.76,2.44-1.76,3.3-.03,8.79-.17,16.45-.43,7.66-.26,13.28-.4,16.85-.43.09,0,.24,0,.46-.02.22-.01.41-.01.55,0,.15.02.32.03.53.05.21.02.38.04.51.09.13.04.27.11.4.18.13.08.22.19.27.34.04.15.07.32.07.5-.18,3.95-.33,11.22-.44,21.82-1.62.03-4.78.1-9.45.2-4.68.11-8.48.16-11.4.16-.12,3.49-.15,6.93-.09,10.3,0,1.17.12,1.76.35,1.76.09,0,.21-.04.35-.11.15-.07.31-.11.49-.11,1.33-.12,5.89-.27,13.68-.45.15,0,.33,0,.55-.02.22-.01.41-.03.58-.04.16-.02.32-.02.46,0,.15.02.27.07.35.16.09.09.13.21.13.36v3.52c-.15,7.53-.27,12.38-.35,14.55,0,.6-.09.99-.27,1.15-.18.17-.55.25-1.11.25-2.16.06-5.15.15-8.99.27-3.84.12-5.86.18-6.07.18-.06.96-.09,2.06-.09,3.3s.01,2.58.04,4.04.04,2.52.04,3.19c1.77,0,5.1-.17,9.98-.5,4.88-.33,8.54-.5,10.96-.5.44,0,.68.04.71.11.03.08.04.56.04,1.47-.56,8.43-.87,15.06-.93,19.88,0,1.42-.49,2.12-1.46,2.12h-1.82c-16.62,0-27.73-.03-33.34-.09-.97,0-1.46-.8-1.46-2.39Z"/>
      <path class="st0" d="M430.7,25.01v-3.12c-.03-2.8.07-4.43.29-4.88.22-.45,1.03-.62,2.41-.5.47.03.84.06,1.11.09,5.61-.3,9.33-.3,11.16,0h.8c.62,0,1.08.24,1.37.72.56.27.93.65,1.11,1.13,3.19,7.95,7.29,18.99,12.31,33.12.15.42.35.99.62,1.72.27.72.49,1.34.69,1.85.19.51.39,1.02.6,1.54.21.51.39.9.55,1.15.16.26.29.35.38.29.18-.12.27-.61.27-1.47s-.04-2.05-.13-3.57c-.09-1.52-.13-2.67-.13-3.46-.03-2.62-.07-4.61-.11-5.96-.04-1.36-.07-3.57-.07-6.64,0-.48,0-1.07-.02-1.76-.02-.69-.02-1.25-.02-1.67v-1.42c0-.53.02-.94.07-1.24.04-.3.1-.59.18-.88.07-.29.18-.49.33-.61.15-.12.33-.18.53-.18h5c2.42.18,4.68.27,6.77.27.47,0,.95,0,1.44-.02.49-.02.86-.05,1.11-.09.25-.05.52-.05.8,0,.28.04.47.07.58.07s.21.1.33.29c.12.2.18.37.2.52.01.15.03.46.04.93.01.47.01.9,0,1.29-.02.39-.04.99-.07,1.81-.03.81-.04,1.6-.04,2.35v7.07c0,.62.04,1.97.11,4.07.07,2.09.12,4.44.15,7.03.03,2.95.06,9.07.09,18.34.03,9.28.12,16.54.27,21.78,0,.39.01.95.04,1.67.06.96.07,1.85.04,2.67-.03.81-.09,1.52-.18,2.12-.09.6-.29,1.07-.6,1.4-.31.33-.72.5-1.22.5h-10.45c-.59,0-1.25.02-1.97.07-.72.04-1.2.08-1.44.09-.24.02-.55,0-.93-.07-.47,0-.8-.03-.97-.09-1.71-4.37-5.77-14.92-12.18-31.67-.27-.69-.67-1.88-1.22-3.57-.55-1.69-1-2.97-1.37-3.86-.37-.89-.69-1.33-.95-1.33-.33,0-.52.5-.6,1.49-.07.99-.07,2.55.02,4.68.09,2.12.13,3.49.13,4.09l.04,2.98v-.18c.06-.51.09-.56.09-.14.03.48.04,1.45.04,2.89,0,.75,0,1.54.02,2.35.01.81.04,1.42.07,1.83.03.41.03.84,0,1.29-.03.45-.04.75-.04.9s-.06.32-.18.52c-.12.2-.22.3-.31.32-.09.02-.27.04-.55.07-.28.03-.55.02-.8-.02-.25-.04-.62-.07-1.11-.09-.49-.02-.97-.02-1.44-.02-.92,0-2.21.04-3.87.14-1.67.09-2.65.14-2.95.14h-4.96c-.29,0-.52-.13-.69-.38-.16-.25-.27-.62-.31-1.08-.04-.47-.07-1.02-.09-1.67-.02-.65-.02-1.36,0-2.12.01-.77,0-1.6-.02-2.51-.03-2.05-.07-3.7-.13-4.95-.06-1.25-.1-2.06-.11-2.44-.02-.38-.02-1.15,0-2.33.01-1.17.07-3.18.15-6.01.09-6.33.14-10.47.16-12.45.01-1.97-.02-6.15-.11-12.54-.09-6.39-.13-10.59-.13-12.61Z"/>
      <path class="st0" d="M484.63,16.02c2.21,0,5.51.02,9.9.04,4.38.03,7.68.05,9.9.05,3.31,0,6.3.54,8.99,1.6,2.69,1.07,4.98,2.61,6.89,4.63,1.9,2.02,3.55,4.38,4.94,7.07,1.39,2.7,2.48,5.78,3.28,9.24.8,3.46,1.38,7.05,1.75,10.75.37,3.71.55,7.7.55,11.97,0,2.86-.09,5.58-.27,8.15-.18,2.58-.52,5.33-1.02,8.27-.5,2.94-1.15,5.62-1.95,8.04-.8,2.42-1.88,4.79-3.25,7.09-1.37,2.3-2.95,4.24-4.74,5.81s-3.98,2.82-6.58,3.77-5.46,1.42-8.59,1.42h-16.87c-1.48,0-2.32-1.32-2.52-3.98-.68-16.33-1.08-42.29-1.2-77.89,0-.3,0-.81-.02-1.51-.02-.71-.02-1.27-.02-1.69s.01-.88.04-1.38c.03-.5.11-.87.24-1.11.13-.24.32-.36.55-.36ZM502.08,39.06c-.38.39-.58,1.66-.58,3.79.03,2.95.02,8.82-.02,17.6-.04,8.78.02,14.65.2,17.6,0,1.69.25,2.73.75,3.12.62.21,1.29.26,2.01.14.72-.12,1.29-.26,1.71-.41,1.59-.51,2.92-1.67,3.98-3.48s1.81-3.95,2.24-6.44c.43-2.48.7-4.77.82-6.87.12-2.09.13-4.15.04-6.17-.06-1.93-.19-3.78-.4-5.56-.21-1.78-.55-3.67-1.04-5.69-.49-2.02-1.21-3.71-2.17-5.08-.96-1.37-2.12-2.22-3.48-2.55l-.53-.09c-.35-.09-.66-.15-.93-.18-.27-.03-.58-.06-.95-.09-.37-.03-.7-.02-1,.04-.3.06-.52.17-.67.32Z"/>
      <path class="st0" d="M551.9,44.26c.06.75.38,1.39.97,1.92.59.53,1.35.96,2.28,1.31.93.35,1.99.7,3.19,1.06s2.44.83,3.74,1.4c1.3.57,2.6,1.26,3.9,2.06,1.3.8,2.54,1.9,3.72,3.3,1.18,1.4,2.23,3.03,3.14,4.88.91,1.85,1.65,4.19,2.21,7.03.56,2.83.86,6.01.88,9.53,0,16.51-5.33,25.69-15.98,27.56-1.48.24-3.39.35-5.73.34-2.35-.02-4.8-.14-7.35-.38-2.55-.24-5-.71-7.33-1.4-2.33-.69-4.04-1.54-5.14-2.53-.62-.57-1.04-1.54-1.26-2.89-.22-1.36-.38-4.04-.46-8.04-.03-2.53-.04-4.58-.04-6.17s.07-2.82.22-3.7c.15-.89.35-1.48.6-1.76.25-.29.63-.38,1.13-.29.21.03.68.11,1.42.23,16.26,2.89,24.07,1.94,23.42-2.85-.06-.3-.15-.63-.27-.99-.33-.99-.89-1.86-1.71-2.6-.81-.74-1.75-1.35-2.81-1.83-1.06-.48-2.24-.96-3.54-1.42-1.3-.47-2.61-1.01-3.92-1.63-1.31-.62-2.61-1.34-3.9-2.17-1.28-.83-2.48-1.91-3.59-3.25-1.11-1.34-2.07-2.91-2.9-4.7s-1.45-4.04-1.86-6.75c-.41-2.71-.56-5.75-.44-9.13.15-3.64.67-6.89,1.57-9.74s2.07-5.18,3.52-7c1.45-1.82,3.18-3.32,5.2-4.5,2.02-1.17,4.13-2,6.33-2.48,2.2-.48,4.58-.72,7.15-.72,6.97,0,12.46,1.26,16.47,3.79.38.21.71.68.97,1.4.27.72.4,1.43.4,2.12v4.31c0,.62,0,1.45-.02,2.51-.01,1.05-.04,1.94-.09,2.64-.04.71-.1,1.51-.18,2.42-.07.9-.18,1.64-.31,2.21-.13.57-.29,1.12-.46,1.65-.18.53-.4.9-.66,1.13-.27.23-.56.31-.89.25-2.6-.51-4.55-.89-5.87-1.13-1.31-.24-3.01-.5-5.09-.79-2.08-.29-3.65-.35-4.69-.2-1.05.15-2.13.4-3.25.75-1.12.35-1.88.97-2.28,1.88-.4.9-.54,2.03-.42,3.39Z"/>
    </g>
    <g class="st1">
      <path class="st0" d="M51.4,149.29v1.8c0,5.14-.5,7.39-2.14,9.32-1.57,1.93-3.65,2.83-7.5,3.28-2.39.19-9.57.45-15.24.45-15.18,0-18.9-.64-21.98-3.92-2.71-2.83-3.34-6.23-3.34-17.93,0-13.37.88-16.77,5.17-19.54,3.21-2.06,6.68-2.38,24-2.38,10.52,0,14.17.51,16.75,2.44,2.83,1.99,3.72,4.69,3.91,11.5h-4.91v-1.09c0-7.58-1.76-8.36-19.4-8.36-20.16,0-20.28.06-20.28,17.42,0,9.77.44,12.85,2.2,14.72,2.02,2.12,5.23,2.63,17.01,2.63,18.9,0,20.85-.71,20.85-7.9v-2.44h4.91Z"/>
      <path class="st0" d="M110.99,124.29c2.71,2.89,3.34,6.23,3.34,17.93s-.63,15.1-3.34,18c-3.21,3.41-6.42,3.92-23.68,3.92s-20.47-.51-23.68-3.92c-2.71-2.89-3.34-6.23-3.34-17.93s.63-15.17,3.34-18c3.21-3.41,6.42-3.92,23.94-3.92s20.22.58,23.43,3.92ZM67.71,127.51c-1.76,1.86-2.2,4.95-2.2,14.78s.44,12.85,2.2,14.72c2.14,2.31,4.79,2.63,19.59,2.63s17.45-.38,19.59-2.63c1.76-1.86,2.2-4.95,2.2-14.72s-.44-12.92-2.2-14.78c-1.95-2.19-5.48-2.63-19.34-2.63s-17.83.45-19.84,2.63Z"/>
      <path class="st0" d="M124.84,120.82h8.13l25.32,36.89,25.38-36.89h7.87v42.87h-5.04v-38.63l-26.46,38.63h-3.72l-26.46-38.63v38.63h-5.04v-42.87Z"/>
      <path class="st0" d="M203.32,120.82h5.04v42.87h-5.04v-42.87Z"/>
      <path class="st0" d="M269.08,149.29v1.8c0,5.14-.5,7.39-2.14,9.32-1.57,1.93-3.65,2.83-7.5,3.28-2.39.19-9.57.45-15.24.45-15.18,0-18.9-.64-21.98-3.92-2.71-2.83-3.34-6.23-3.34-17.93,0-13.37.88-16.77,5.17-19.54,3.21-2.06,6.68-2.38,24-2.38,10.52,0,14.17.51,16.75,2.44,2.83,1.99,3.72,4.69,3.91,11.5h-4.91v-1.09c0-7.58-1.76-8.36-19.4-8.36-20.16,0-20.28.06-20.28,17.42,0,9.77.44,12.85,2.2,14.72,2.02,2.12,5.23,2.63,17.01,2.63,18.9,0,20.85-.71,20.85-7.9v-2.44h4.91Z"/>
      <path class="st0" d="M294.9,120.82h33.64c6.17,0,8.63.58,10.71,2.51,2.08,1.99,2.96,4.56,2.96,8.93s-.95,6.3-3.59,7.84c-.94.51-1.39.71-2.02.9,4.91.9,7.12,3.92,7.12,9.96,0,4.76-.88,7.58-3.02,9.64-2.33,2.18-5.29,3.08-10.27,3.08h-35.53v-42.87ZM325,139.27c6.74,0,8.31-.19,9.76-1.09,1.51-.96,2.21-2.83,2.21-5.85,0-5.46-2.14-7.2-9.01-7.2h-28.03v14.14h25.07ZM328.15,159.38c8.31,0,10.33-1.61,10.33-8.16s-1.89-7.91-11.46-7.91h-27.08v16.07h28.22Z"/>
      <path class="st0" d="M403.17,124.29c2.71,2.89,3.34,6.23,3.34,17.93s-.63,15.1-3.34,18c-3.21,3.41-6.42,3.92-23.68,3.92s-20.47-.51-23.68-3.92c-2.71-2.89-3.34-6.23-3.34-17.93s.63-15.17,3.34-18c3.21-3.41,6.42-3.92,23.94-3.92s20.22.58,23.43,3.92ZM359.9,127.51c-1.76,1.86-2.21,4.95-2.21,14.78s.44,12.85,2.21,14.72c2.14,2.31,4.79,2.63,19.59,2.63s17.45-.38,19.59-2.63c1.76-1.86,2.21-4.95,2.21-14.72s-.44-12.92-2.21-14.78c-1.95-2.19-5.48-2.63-19.34-2.63s-17.83.45-19.84,2.63Z"/>
      <path class="st0" d="M466.47,124.29c2.71,2.89,3.34,6.23,3.34,17.93s-.63,15.1-3.34,18c-3.21,3.41-6.42,3.92-23.68,3.92s-20.47-.51-23.68-3.92c-2.71-2.89-3.34-6.23-3.34-17.93s.63-15.17,3.34-18c3.21-3.41,6.42-3.92,23.94-3.92s20.22.58,23.43,3.92ZM423.2,127.51c-1.76,1.86-2.21,4.95-2.21,14.78s.44,12.85,2.21,14.72c2.14,2.31,4.79,2.63,19.59,2.63s17.45-.38,19.59-2.63c1.76-1.86,2.21-4.95,2.21-14.72s-.44-12.92-2.21-14.78c-1.95-2.19-5.48-2.63-19.34-2.63s-17.83.45-19.84,2.63Z"/>
      <path class="st0" d="M480.32,120.82h5.04v18.7h7.62l27.46-18.7h8.5l-30.67,20.76,32.25,22.11h-8.44l-29.23-20.12h-7.5v20.12h-5.04v-42.87Z"/>
      <path class="st0" d="M539.21,150.32v1.16c0,4.31.88,6.04,3.59,6.94,2.46.84,7.12,1.22,14.68,1.22,16.44,0,19.4-1.29,19.4-8.42,0-3.6-1.07-5.21-3.9-6.04-2.77-.77-3.02-.77-21.79-.9-7.62-.06-10.9-.64-13.48-2.38-2.52-1.74-3.53-4.11-3.53-8.36,0-6.43,2.27-10.09,7.24-11.57,3.59-1.09,9.13-1.61,17.76-1.61,9.7,0,14.68.71,17.57,2.57,3.09,1.93,4.03,4.18,4.22,10.15h-4.91c-.06-3.41-.63-4.95-2.02-6.04-1.95-1.54-6.3-2.19-14.8-2.19-16.57,0-19.78,1.35-19.78,8.23,0,2.96.82,4.63,2.58,5.46,2.21,1.03,4.09,1.16,16,1.22,13.35.06,16.25.32,19.27,1.8,3.4,1.67,4.79,4.56,4.79,9.9,0,5.91-1.95,9.45-6.11,11.05-3.09,1.16-7.87,1.61-17.57,1.61-10.2,0-14.99-.45-18.39-1.61-3.78-1.35-5.86-4.63-5.86-9.25v-2.96h5.04Z"/>
    </g>
  </g>
  <g class="st1">
    <g class="st1">
      <path class="st0" d="M583.29,11.72h-1.41V2.09h-3.56V.76h8.51v1.33h-3.53v9.63ZM599.91,11.72h-1.41V2.18l-.06.17-.08.2-.08.2-3.76,8.97h-1.36l-3.76-8.85-.08-.17-.08-.2s-.06-.12-.08-.2v9.43h-1.41V.76h2.29l2.94,7.04.48,1.12.23.55.14.38.4-.92.45-1.12,2.94-7.04h2.32v10.96Z"/>
    </g>
  </g>
</svg>